<svg width="30" height="25" viewBox="0 0 30 25" fill="none" xmlns="http://www.w3.org/2000/svg">
<path fill="#F9F7EF" d="M12.461 0.0277144C12.9963 0.00194681 13.5336 0.0214308 14.0689 0.0132606C14.3917 -0.00622216 14.7157 -0.00307986 15.0385 0.015146C15.7961 0.0195453 16.5537 0.0107471 17.3113 0.0195458C18.078 0.0252021 18.8181 0.399145 19.299 0.971688C19.5815 1.27964 19.7533 1.66113 19.9626 2.01559C21.0624 3.96575 22.1681 5.9134 23.2802 7.85728C25.1434 11.1624 27.0008 14.4714 28.8797 17.7684C29.3301 18.5967 29.9568 19.3999 29.9918 20.3728C30.0715 21.3017 29.566 22.2481 28.7436 22.7264C27.7831 23.2914 26.8012 23.8212 25.8304 24.3699C25.5621 24.5107 25.3009 24.6653 25.0229 24.7891C24.3158 25.0995 23.4565 25.0681 22.7837 24.6892C20.9989 23.7515 19.2231 22.7968 17.4422 21.8528C16.9419 21.5889 16.45 21.3105 15.9361 21.0729C15.3476 20.8052 14.6334 20.758 14.0378 21.0314C13.542 21.2533 13.0696 21.5197 12.5867 21.7661C10.809 22.6768 9.05401 23.6277 7.28862 24.5603C6.98921 24.7155 6.69044 24.8865 6.35214 24.9468C5.7559 25.0832 5.12661 24.9387 4.60554 24.6445C3.52453 24.0424 2.45908 23.4165 1.38909 22.7968C0.630825 22.3764 0.0715263 21.6008 0.0106061 20.7467C-0.0587392 20.0127 0.221234 19.3006 0.579627 18.6677C3.68915 13.1968 6.77145 7.71147 9.89005 2.24561C10.1862 1.76357 10.3988 1.22057 10.8194 0.822739C11.2504 0.385948 11.8408 0.0955899 12.461 0.0277144ZM14.6133 10.5528C14.172 10.6609 13.8051 10.9777 13.5971 11.3654C13.2452 12.0046 12.8667 12.6299 12.5005 13.2622C11.1901 15.5178 9.90301 17.7872 8.59711 20.046C8.48823 20.242 8.42666 20.4626 8.43379 20.687C8.41824 21.2017 8.80256 21.7058 9.32167 21.8283C9.61526 21.8918 9.93995 21.8799 10.2083 21.7372C12.7896 20.3294 15.3891 18.9518 17.9827 17.566C18.2407 17.4277 18.5154 17.3014 18.7183 17.089C19.0858 16.6956 19.1221 16.0683 18.8382 15.6209C18.0022 14.1502 17.1415 12.694 16.3029 11.2247C15.9736 10.6678 15.2497 10.3988 14.6133 10.5528Z"/>
</svg>
