<svg width="118" height="25" viewBox="0 0 118 25" fill="none" xmlns="http://www.w3.org/2000/svg">
<g>
<g>
<path d="M53.3189 6.71965C53.7883 5.96235 54.785 5.98368 55.5714 5.96235C56.4965 6.00806 57.4886 5.81759 58.3558 6.23052C58.7353 6.38899 58.9547 6.75317 59.1422 7.09906C60.6327 10.0033 62.2055 12.8634 63.7021 15.7631C63.8271 16.0815 64.0938 16.3893 64.0298 16.752C63.7753 17.0095 63.3973 17.0247 63.0605 17.0324C62.4402 17.0369 61.8215 17.0385 61.2042 17.0293C60.7089 17.0324 60.1694 16.8465 59.9042 16.4061C59.6619 15.984 59.4775 15.533 59.258 15.1003C57.1244 15.1292 54.9907 15.0865 52.8586 15.1216C52.4837 15.8027 52.2795 16.8251 51.3818 16.9821C50.4918 17.0826 49.5865 17.0278 48.6904 17.0263C48.3932 17.0583 48.1905 16.819 48 16.6362C49.7633 13.3266 51.4992 10.0003 53.3189 6.71965ZM56.0743 8.5969C55.4068 9.92256 54.7758 11.2665 54.0992 12.5861C55.4037 12.6424 56.7175 12.6577 58.022 12.58C57.3301 11.2741 56.7708 9.90123 56.0743 8.5969Z" fill="#F9F7EF"/>
<path d="M64.5952 6.83395C64.586 6.23969 65.2658 6.01569 65.758 6.02331C68.0319 6.01265 70.3057 5.98979 72.5781 6.02026C74.1067 6.18026 75.8517 6.549 76.7829 7.89904C77.4504 8.77824 77.5235 9.95457 77.2629 10.9968C76.981 11.6642 76.5573 12.2981 75.9416 12.7004C75.5545 12.9457 75.1308 13.1224 74.7285 13.3388C75.7252 14.3171 76.6244 15.3852 77.5891 16.3924C77.8238 16.6499 77.4763 17.0095 77.1974 17.0171C76.3912 17.0537 75.5819 17.0202 74.7757 17.0354C74.3246 17.0217 73.7973 17.0583 73.4452 16.7246C72.54 15.7981 71.8313 14.6858 70.9047 13.7853C70.0969 13.7319 69.2846 13.7959 68.4738 13.7685C68.4601 14.7254 68.4449 15.6823 68.4296 16.6408C68.1797 16.8038 67.9359 17.0309 67.6204 17.0217C66.9041 17.0385 66.1878 17.0476 65.4715 17.0293C65.0722 17.0232 64.5251 16.7855 64.5769 16.3071C64.5632 13.1499 64.5571 9.99115 64.5952 6.83395ZM68.4296 8.6152C68.4175 9.52335 68.4296 10.4315 68.422 11.3397C69.4782 11.3488 70.5343 11.3442 71.5905 11.3397C72.098 11.3427 72.6055 11.1675 73.0155 10.8703C73.4681 10.4955 73.5717 9.78544 73.2669 9.2887C72.9575 8.85138 72.4013 8.68377 71.8968 8.6213C70.7401 8.60911 69.5849 8.62434 68.4296 8.6152Z" fill="#F9F7EF"/>
<path d="M79.2777 6.293C79.6968 6.00044 80.2409 6.01568 80.7332 6.00959C83.6197 6.00502 86.5077 6.00806 89.3958 6.00044C89.7051 6.00806 89.9642 6.26253 90.0907 6.53071C90.1242 7.08382 90.1227 7.64304 90.0618 8.19464C89.8697 8.43691 89.5832 8.64414 89.2586 8.61062C87.099 8.60909 84.941 8.61671 82.7814 8.61519C82.7647 9.17136 82.7571 9.72905 82.7708 10.2883C84.7353 10.305 86.7013 10.2959 88.6673 10.2837C88.9492 10.241 89.1519 10.4742 89.3013 10.6814C89.3409 11.1797 89.3104 11.6825 89.3013 12.1823C89.3394 12.4703 89.0772 12.7567 88.7877 12.7461C86.7866 12.7537 84.784 12.7278 82.783 12.7506C82.7616 13.3068 82.7571 13.863 82.7647 14.4207C85.0401 14.4359 87.317 14.4252 89.5939 14.4359C89.885 14.4069 90.0526 14.6827 90.234 14.8595C90.2172 15.3943 90.1913 15.9337 90.2614 16.4686C90.045 16.7992 89.6868 17.0415 89.2815 17.0217C86.2166 17.0217 83.1518 17.0506 80.0885 17.0004C79.3829 17.0385 78.8174 16.397 78.8708 15.7082C78.886 13.0066 78.8754 10.3035 78.8845 7.6019C78.9333 7.15696 78.8403 6.57489 79.2777 6.293Z" fill="#F9F7EF"/>
<path d="M95.3974 6.89185C95.8714 5.96541 97.0494 5.98218 97.9456 5.96846C98.9469 5.99437 100.194 5.74904 100.931 6.61301C101.935 8.32722 102.794 10.1268 103.754 11.8669C104.622 13.4272 105.419 15.0256 106.241 16.6118C106.038 16.7642 105.867 17.0263 105.586 17.008C104.814 17.0324 104.043 17.0263 103.274 17.0293C102.845 17.0385 102.374 16.9105 102.126 16.5372C101.824 16.0861 101.609 15.5863 101.367 15.1048C99.2822 15.1307 97.1973 15.0927 95.1124 15.1064C94.6628 15.754 94.5546 16.781 93.6646 16.9943C93.0169 17.0933 92.3554 17.0156 91.7031 17.037C91.1972 17.0309 90.5647 17.0842 90.2416 16.6042C91.9378 13.3556 93.6478 10.1115 95.3974 6.89185ZM98.1803 8.72797C97.5341 10.0277 96.9153 11.3427 96.2249 12.6211C97.5295 12.6135 98.8341 12.6638 100.137 12.6029C99.5489 11.2863 98.8813 10.0079 98.2672 8.70359C98.2458 8.70968 98.2016 8.72187 98.1803 8.72797Z" fill="#F9F7EF"/>
<path d="M106.675 6.82785C106.646 6.37225 107.076 5.95627 107.532 5.99894C108.247 5.99436 108.961 5.98522 109.678 5.99131C110.113 5.99284 110.583 6.38292 110.533 6.84461C110.552 9.34965 110.525 11.8547 110.511 14.3597C112.777 14.3491 115.045 14.3384 117.311 14.3414C117.711 14.2835 118.041 14.701 117.996 15.0759C117.99 15.562 117.968 16.048 117.973 16.5356C117.755 16.7962 117.493 17.0644 117.122 17.0263C114.087 17.0476 111.049 17.0309 108.012 17.0217C107.494 17.0034 106.761 16.8861 106.681 16.2568C106.611 15.2572 106.608 14.2531 106.651 13.252C106.652 11.1111 106.655 8.96872 106.675 6.82785Z" fill="#F9F7EF"/>
</g>
<path d="M12.461 0.0277144C12.9963 0.00194681 13.5336 0.0214308 14.0689 0.0132606C14.3917 -0.00622216 14.7157 -0.00307986 15.0385 0.015146C15.7961 0.0195453 16.5537 0.0107471 17.3113 0.0195458C18.078 0.0252021 18.8181 0.399145 19.299 0.971688C19.5815 1.27964 19.7533 1.66113 19.9626 2.01559C21.0624 3.96575 22.1681 5.9134 23.2802 7.85728C25.1434 11.1624 27.0008 14.4714 28.8797 17.7684C29.3301 18.5967 29.9568 19.3999 29.9918 20.3728C30.0715 21.3017 29.566 22.2481 28.7436 22.7264C27.7831 23.2914 26.8012 23.8212 25.8304 24.3699C25.5621 24.5107 25.3009 24.6653 25.0229 24.7891C24.3158 25.0995 23.4565 25.0681 22.7837 24.6892C20.9989 23.7515 19.2231 22.7968 17.4422 21.8528C16.9419 21.5889 16.45 21.3105 15.9361 21.0729C15.3476 20.8052 14.6334 20.758 14.0378 21.0314C13.542 21.2533 13.0696 21.5197 12.5867 21.7661C10.809 22.6768 9.05401 23.6277 7.28862 24.5603C6.98921 24.7155 6.69044 24.8865 6.35214 24.9468C5.7559 25.0832 5.12661 24.9387 4.60554 24.6445C3.52453 24.0424 2.45908 23.4165 1.38909 22.7968C0.630825 22.3764 0.0715263 21.6008 0.0106061 20.7467C-0.0587392 20.0127 0.221234 19.3006 0.579627 18.6677C3.68915 13.1968 6.77145 7.71147 9.89005 2.24561C10.1862 1.76357 10.3988 1.22057 10.8194 0.822739C11.2504 0.385948 11.8408 0.0955899 12.461 0.0277144ZM14.6133 10.5528C14.172 10.6609 13.8051 10.9777 13.5971 11.3654C13.2452 12.0046 12.8667 12.6299 12.5005 13.2622C11.1901 15.5178 9.90301 17.7872 8.59711 20.046C8.48823 20.242 8.42666 20.4626 8.43379 20.687C8.41824 21.2017 8.80256 21.7058 9.32167 21.8283C9.61526 21.8918 9.93995 21.8799 10.2083 21.7372C12.7896 20.3294 15.3891 18.9518 17.9827 17.566C18.2407 17.4277 18.5154 17.3014 18.7183 17.089C19.0858 16.6956 19.1221 16.0683 18.8382 15.6209C18.0022 14.1502 17.1415 12.694 16.3029 11.2247C15.9736 10.6678 15.2497 10.3988 14.6133 10.5528Z" fill="#F9F7EF"/>
</g>
</svg>
